<mxfile host="app.diagrams.net" agent="Mozilla/5.0 (X11; Linux x86_64) AppleWebKit/537.36 (KHTML, like Gecko) Chrome/135.0.0.0 Safari/537.36" version="27.0.6">
  <diagram name="PÃ¡gina-1" id="Lo6E0gTspyGEt3pg3Dx_">
    <mxGraphModel dx="1426" dy="751" grid="1" gridSize="10" guides="1" tooltips="1" connect="1" arrows="1" fold="1" page="1" pageScale="1" pageWidth="827" pageHeight="1169" math="0" shadow="0">
      <root>
        <mxCell id="0" />
        <mxCell id="1" parent="0" />
        <mxCell id="kEwwdqCnh403FIooU-Ub-17" value="" style="rounded=1;whiteSpace=wrap;html=1;dashed=1;" vertex="1" parent="1">
          <mxGeometry x="380" y="90" width="100" height="70" as="geometry" />
        </mxCell>
        <mxCell id="kEwwdqCnh403FIooU-Ub-1" value="" style="rounded=0;whiteSpace=wrap;html=1;fillColor=#bac8d3;strokeColor=#23445d;" vertex="1" parent="1">
          <mxGeometry x="160" y="40" width="40" height="40" as="geometry" />
        </mxCell>
        <mxCell id="kEwwdqCnh403FIooU-Ub-2" value="" style="rounded=0;whiteSpace=wrap;html=1;fillColor=#1ba1e2;strokeColor=#006EAF;fontColor=#ffffff;" vertex="1" parent="1">
          <mxGeometry x="200" y="40" width="20" height="40" as="geometry" />
        </mxCell>
        <mxCell id="kEwwdqCnh403FIooU-Ub-3" value="" style="rounded=0;whiteSpace=wrap;html=1;fillColor=#1ba1e2;strokeColor=#006EAF;fontColor=#ffffff;" vertex="1" parent="1">
          <mxGeometry x="240" y="40" width="40" height="40" as="geometry" />
        </mxCell>
        <mxCell id="kEwwdqCnh403FIooU-Ub-4" value="" style="rounded=0;whiteSpace=wrap;html=1;fillColor=#bac8d3;strokeColor=#23445d;" vertex="1" parent="1">
          <mxGeometry x="280" y="40" width="20" height="40" as="geometry" />
        </mxCell>
        <mxCell id="kEwwdqCnh403FIooU-Ub-5" value="" style="rounded=0;whiteSpace=wrap;html=1;fillColor=#bac8d3;strokeColor=#23445d;" vertex="1" parent="1">
          <mxGeometry x="320" y="40" width="40" height="40" as="geometry" />
        </mxCell>
        <mxCell id="kEwwdqCnh403FIooU-Ub-6" value="" style="rounded=0;whiteSpace=wrap;html=1;fillColor=#1ba1e2;strokeColor=#006EAF;fontColor=#ffffff;" vertex="1" parent="1">
          <mxGeometry x="360" y="40" width="20" height="40" as="geometry" />
        </mxCell>
        <mxCell id="kEwwdqCnh403FIooU-Ub-7" value="" style="rounded=0;whiteSpace=wrap;html=1;fillColor=#bac8d3;strokeColor=#23445d;" vertex="1" parent="1">
          <mxGeometry x="380" y="40" width="60" height="40" as="geometry" />
        </mxCell>
        <mxCell id="kEwwdqCnh403FIooU-Ub-8" value="" style="rounded=0;whiteSpace=wrap;html=1;fillColor=#1ba1e2;strokeColor=#006EAF;fontColor=#ffffff;" vertex="1" parent="1">
          <mxGeometry x="440" y="40" width="40" height="40" as="geometry" />
        </mxCell>
        <mxCell id="kEwwdqCnh403FIooU-Ub-9" value="" style="rounded=0;whiteSpace=wrap;html=1;fillColor=#bac8d3;strokeColor=#23445d;" vertex="1" parent="1">
          <mxGeometry x="220" y="40" width="20" height="40" as="geometry" />
        </mxCell>
        <mxCell id="kEwwdqCnh403FIooU-Ub-10" value="" style="rounded=0;whiteSpace=wrap;html=1;fillColor=#1ba1e2;strokeColor=#006EAF;fontColor=#ffffff;" vertex="1" parent="1">
          <mxGeometry x="300" y="40" width="20" height="40" as="geometry" />
        </mxCell>
        <mxCell id="kEwwdqCnh403FIooU-Ub-11" value="" style="rounded=0;whiteSpace=wrap;html=1;fillColor=#dae8fc;strokeColor=#6c8ebf;" vertex="1" parent="1">
          <mxGeometry x="160" y="103" width="80" height="40" as="geometry" />
        </mxCell>
        <mxCell id="kEwwdqCnh403FIooU-Ub-12" value="Novo objeto" style="text;html=1;align=center;verticalAlign=middle;whiteSpace=wrap;rounded=0;" vertex="1" parent="1">
          <mxGeometry x="240" y="108" width="45" height="30" as="geometry" />
        </mxCell>
        <mxCell id="kEwwdqCnh403FIooU-Ub-13" value="" style="rounded=0;whiteSpace=wrap;html=1;fillColor=#1ba1e2;strokeColor=#006EAF;fontColor=#ffffff;" vertex="1" parent="1">
          <mxGeometry x="393" y="100" width="20" height="20" as="geometry" />
        </mxCell>
        <mxCell id="kEwwdqCnh403FIooU-Ub-14" value="" style="rounded=0;whiteSpace=wrap;html=1;fillColor=#bac8d3;strokeColor=#23445d;" vertex="1" parent="1">
          <mxGeometry x="393" y="130" width="20" height="20" as="geometry" />
        </mxCell>
        <mxCell id="kEwwdqCnh403FIooU-Ub-15" value="Alocado" style="text;html=1;align=left;verticalAlign=middle;whiteSpace=wrap;rounded=0;" vertex="1" parent="1">
          <mxGeometry x="424" y="95" width="56" height="30" as="geometry" />
        </mxCell>
        <mxCell id="kEwwdqCnh403FIooU-Ub-16" value="free" style="text;html=1;align=left;verticalAlign=middle;whiteSpace=wrap;rounded=0;" vertex="1" parent="1">
          <mxGeometry x="424" y="125" width="56" height="30" as="geometry" />
        </mxCell>
      </root>
    </mxGraphModel>
  </diagram>
</mxfile>
